<?xml version="1.0" standalone="no"?>
<!DOCTYPE svg PUBLIC "-//W3C//DTD SVG 20010904//EN"
 "http://www.w3.org/TR/2001/REC-SVG-20010904/DTD/svg10.dtd">
<svg version="1.0" xmlns="http://www.w3.org/2000/svg"
 width="936.000000pt" height="936.000000pt" viewBox="0 0 936.000000 936.000000"
 preserveAspectRatio="xMidYMid meet">
<metadata>
Created by potrace 1.14, written by Peter Selinger 2001-2017
</metadata>
<g transform="translate(0.000000,936.000000) scale(0.100000,-0.100000)"
fill="#000000" stroke="none">
<path d="M1077 9080 c-8 -3 -12 -30 -12 -77 l-1 -73 398 0 398 0 0 -1005 0
-1005 -398 0 -397 0 -1 -72 c0 -40 3 -75 7 -78 4 -3 183 -5 398 -5 l391 1 0
-1003 0 -1003 -397 -2 -398 -3 -1 -65 c0 -36 1 -69 3 -75 2 -6 143 -10 398 -9
l395 0 0 -1003 0 -1003 -22 -1 c-13 0 -192 -2 -398 -2 l-375 -2 0 -75 0 -75
375 -2 c206 0 385 -1 398 -2 l22 -1 0 -1000 c0 -945 -1 -1000 -17 -1001 -10 0
-189 -1 -398 -2 l-380 -2 0 -75 0 -75 3613 -1 c3482 0 3612 0 3613 18 1 23 1
59 0 101 l-1 34 -1007 1 c-555 0 -1019 1 -1033 1 -17 1 -6 8 35 22 33 11 119
49 190 84 422 210 757 605 915 1081 74 224 105 421 105 676 0 129 1 137 20
140 11 2 190 3 398 2 l377 0 1 33 c0 18 1 47 1 63 0 17 -1 36 -1 43 -1 12 -73
14 -402 13 -359 -1 -426 2 -419 15 14 24 -62 330 -120 489 -231 629 -728 1053
-1300 1108 -87 8 -258 7 -350 -2 -163 -16 -424 -80 -552 -135 l-46 -20 -80
127 c-225 361 -262 420 -262 424 0 2 794 3 1765 3 l1765 0 1 35 c0 19 1 54 2
77 l2 43 -1762 2 -1761 3 154 250 c85 137 160 255 167 262 9 9 27 5 82 -21
147 -70 339 -125 509 -144 91 -10 313 -7 376 6 30 6 71 14 90 17 122 20 323
93 490 178 326 167 632 550 751 942 18 57 48 171 53 200 3 17 8 40 10 53 5 23
21 138 30 217 3 22 5 40 6 40 0 1 180 1 400 0 l400 0 1 35 c0 19 1 54 2 77 l2
43 -398 2 -399 3 -4 165 c-2 91 -6 174 -8 185 -2 11 -7 45 -11 75 -11 93 -15
112 -41 220 -127 534 -459 967 -935 1219 -87 45 -132 65 -279 120 l-55 20
1063 0 1062 1 1 33 c0 17 1 51 2 75 2 31 -2 42 -13 43 -69 4 -7194 3 -7203 -1z
m2253 -1155 l0 -1005 -240 0 -240 0 0 1005 0 1005 240 0 240 0 0 -1005z m1690
998 c-156 -53 -296 -120 -403 -192 -236 -160 -381 -352 -442 -584 -33 -128
-39 -191 -25 -283 39 -259 205 -465 421 -520 85 -22 235 -22 319 0 266 71 429
311 399 587 -9 81 -34 126 -163 286 -126 156 -181 254 -170 300 7 29 46 87 74
111 31 27 137 70 203 82 45 8 113 11 200 7 148 -6 215 -17 332 -52 285 -86
473 -344 559 -769 48 -235 61 -380 65 -733 l3 -243 -1371 0 -1371 0 1 1005 0
1005 692 -1 c381 0 685 -3 677 -6z m-1690 -3160 l0 -1003 -240 0 -240 0 0 998
c0 549 2 1001 5 1004 3 2 111 5 240 4 l235 0 0 -1003z m3046 999 c27 -4 -19
-434 -72 -669 -51 -229 -98 -341 -182 -434 -151 -168 -445 -229 -696 -145
-313 106 -538 390 -672 850 -19 67 -37 134 -40 151 -15 96 -42 208 -47 195 -3
-8 -11 -51 -17 -95 -7 -44 -25 -127 -41 -185 -16 -58 -32 -115 -34 -127 -9
-40 -103 -299 -150 -414 -115 -281 -309 -633 -454 -824 -87 -115 -222 -243
-298 -284 l-22 -11 0 998 0 998 1357 -2 c746 0 1362 -2 1368 -2z m-3046 -3159
c0 -948 -1 -1003 -17 -1004 -10 -1 -118 -2 -240 -2 l-223 -2 0 1001 c0 550 2
1003 5 1005 2 3 110 5 240 5 l235 0 0 -1003z m413 919 c69 -56 181 -173 255
-267 308 -390 560 -965 661 -1505 20 -106 22 -113 27 -108 2 3 6 14 8 24 64
339 98 454 199 664 179 376 402 537 742 538 131 1 220 -16 307 -57 111 -53
191 -132 256 -252 31 -57 77 -182 86 -235 3 -13 7 -27 9 -31 17 -28 81 -403
92 -543 4 -41 8 -92 10 -112 2 -21 1 -38 -3 -39 -24 -3 -2719 -4 -2729 -1 -10
3 -13 216 -12 998 0 773 3 993 12 988 7 -4 43 -32 80 -62z m-425 -2081 c9 -1
12 -208 12 -1001 0 -945 -1 -1000 -17 -1001 -10 0 -117 -1 -238 -2 l-220 0 -3
994 c-1 547 0 999 2 1004 3 8 375 13 464 6z m3078 -4 c17 -10 8 -456 -11 -597
-3 -19 -7 -52 -10 -74 -36 -306 -120 -604 -217 -776 -121 -214 -310 -339 -589
-389 -165 -31 -333 -10 -465 57 -181 92 -173 204 30 437 48 56 138 196 156
244 23 63 25 183 5 262 -41 160 -182 317 -349 389 -65 27 -176 48 -243 46
-128 -6 -291 -90 -391 -202 -47 -52 -118 -174 -126 -215 -1 -8 -8 -41 -15 -74
-13 -58 -10 -206 5 -285 48 -254 182 -454 398 -597 104 -69 267 -147 383 -185
56 -18 103 -35 103 -38 0 -4 -1285 -5 -1388 -1 l-22 1 0 999 c0 639 4 1001 10
1003 20 6 2726 2 2736 -5z"/>
</g>
</svg>
